<svg width="221" height="361" viewBox="0 0 221 361" fill="none" xmlns="http://www.w3.org/2000/svg">
<g clip-path="url(#clip0_34_136)">
<path d="M116.098 335.859H116.093L115.248 337.455L108.358 350.46L108.358 350.46C105.9 355.101 101.085 358 95.847 358H-24.8047C-36.1793 358 -42.9279 345.233 -36.5056 335.803L67.3287 183.356C72.0093 176.485 72.0034 167.445 67.3172 160.58L67.3171 160.58L-25.0935 25.2095L-25.0936 25.2094C-31.5296 15.7821 -24.7816 3 -13.4006 3H110.578C115.998 3 120.945 6.09874 123.318 10.985C142.526 50.5522 166.237 87.7602 193.983 121.869L196.31 119.976L193.983 121.869L205.999 136.64C222.316 156.698 221.963 185.58 205.164 205.233C170.825 245.406 140.962 289.207 116.098 335.859Z" stroke="#CEFF00" stroke-width="6"/>
</g>
<defs>
<clipPath id="clip0_34_136">
<rect width="263" height="361" fill="white" transform="translate(-42)"/>
</clipPath>
</defs>
</svg>
